<svg xmlns="http://www.w3.org/2000/svg" xmlns:xlink="http://www.w3.org/1999/xlink" width="1139.047" height="1161.024" viewBox="0 0 1139.047 1161.024">
  <defs>
    <clipPath id="clip-path">
      <rect id="Rectángulo_166" data-name="Rectángulo 166" width="1139.048" height="1161.024" fill="none"/>
    </clipPath>
  </defs>
  <g id="Grupo_184" data-name="Grupo 184" transform="translate(23570.047 2658.03)">
    <g id="Grupo_183" data-name="Grupo 183" transform="translate(-23570.047 -2658.031)">
      <g id="Grupo_97" data-name="Grupo 97" transform="translate(0 0.001)" clip-path="url(#clip-path)">
        <path id="Trazado_375" data-name="Trazado 375" d="M59.5,284.176c.829,2.423,3.152,4.791,2.488,7.26-2.209,8.09-16.074,5.548-16.7,6.491C40.076,305.66,50.4,311.07,50,312.44c-.835,2.721-7.257,6.115-4.233,9.134,7.1,7.124,10.669-7.26,17.5-8.305,1.8-.284,15.888,10.609,18.79,10.792,7.569.423,3.555-5.1,12.415.807,7.613,5.089-1.182,16.074,19.092,23.948l8.021,3.105c10.63-1.809,5.209-14.466,9.364-18.217,2.73-2.461,8.142-2.763,10.532-5.5,5.14-5.9-1.113-8.708-.27-14.535a79.921,79.921,0,0,1,6.733-20.921c1.662-3.28,5.533-5.707,6.949-9.106,2.149-5.186.306-13.482,3.28-18.181,3.662-5.749,3,7.852,6.294,5.419,4.764-3.528-.146-4.976-.113-8.164,0-1.369,1.842-2.029,2.762-3.033,4.252-4.667,8.718-11.579,13.862-15.175,19.1-13.391,45.269-14.927,65.534-25.636,15.515-8.2,49.212-40.178,57.494-55.364,3.344-6.143,8.305-34.145,9.661-34.378,6.949-1.222-1.65,8.2,6.253,3.619a5.952,5.952,0,0,0,2.667-3.629c.727-2.987-2.7-7.723-2.714-10.847,0-3.28,3.533-7.389.866-10.843-1.2-1.59-4.059-1.2-5.35-2.7-2.891-3.38-3.114-9.56-6.257-12.666l-7.146-2.706c-.944-5.515,12.693-1.42,17.851-4.53-6.22-.2-12.629-8.58-18.753-9.952-4.361-.985-5.365,2.437-9.808-.9-9.07-6.844-13.344-18.7-26.711-19.014-6.514-.161-3.416,8.029-5.36,10.856-1.987,2.863-12.056-.463-14.255-.916-5.245-1.062-11.608,2.8-17.81,0-2.9-1.315-4.133-5.273-7.119-6.349-3.156-1.131-10.574,3.092-13.358-.913-1.6-2.331-.565-13.517-3.514-14.507-3.3-1.131-7.765-.078-9.78-4.553-.491-1.1.678-2.608.008-3.619-3.416-5.249-7.708,3.129-12.445-.921-7.055-6.014-17.415-7.068-24.837-12.744-2.529-1.934-3.506-5.562-6.194-7.266-.737-.472-1.763,0-2.656-.009s-1.979.555-2.676,0c-4.027-3.326-8.708-8.488-13.238-12.748l-.737-.1a8.17,8.17,0,0,1-.165,2.827c-.551,1.4-3.569,2.41-2.686,3.629.766,1.062,2.946.623,3.533,1.818.394.805-1.961-.536-2.653,0-.773.577-.174,2.129-.9,2.721-.952.779-2.812-.06-3.55.9-1.2,1.493-.1,6.333-1.823,5.451-1.922-1-2.006-3.9-3.515-5.46-.667-.688-1.194,1.5-1.79,2.262-1.583,2.029-2.753,3.889-5.332,4.988-4.184,1.781-9.976-.348-14.215.9-.012,0-5.331,3.619-5.346,3.619-1.406.541-3.376-.179-4.43.9-3.655,3.715,2.084,8.186.844,8.182-6.459-.01-.051-8.054-1.737-9.089-1.956-1.213-9.889,6.689-11.552,7.261-1.889.655-9.227.645-10.641,1.809-7.545,6.165,1.155,9.124,2.615,13.642,1.357,4.214-1.131,1.521-1.795,5.479C65.288,54.1,68,59,68.1,59.37c.119.425-4.05,18.273-5.337,20.023-4.43,6.068-18.823,13.16-21.247,20.046-.535,1.5,5.264,12.858,6.227,13.651,1.613,1.333,7.663-.6,6.206.9-3.646,3.77-8.64-3.645-8.864-3.645-.5,0-6.333,16.284-7.916,18.244-4.035,5-11.122-2.9-17.686,7.307-2.515,3.922,8.607,12.922,8.942,16.377.512,5.062-6.353,10.233-5.209,14.6,1.6,6,7.238,11.382,6.363,18.207-.725,5.465-1.5,13.389-9.607,14.609-1.846.275-3.659-2.685-5.328-1.8-.595.3.485,1.282.9,1.809,1.613,2.036,2.665,4.517,4.5,6.377,2.721,2.748,9.089,2.556,12.446,4.49,5.011,2.927,16.555,19.867,23.211,18.112,1.786-.472-4.228-6.446-1.851-7.27.833-.283,5.419,2.566,9.689-4.6,1.383-2.318,7.774-19.319,7.856-10.945,0,.565-7.248,6.176-4.338,9.126.6.608.9-1.838,1.763-1.838,1.324-.009,3.541.473,3.551,1.809.023,1.479-3.075-.559-4.431.024-2.253.93-4.095,6.912.967,7.251,12.968.911,3.1-24.462,5.9-28.218.069-.072,5.667-6.078,6.165-4.566,1.583,4.742-3.325,2.721-4.388,4.562-3.083,5.387.192,2.016.944,6.362.421,2.47-1.228,6.574-.792,9.1.737,4.21,6.587,5.007,7.2,9.075.443,2.95-7.875,17.224-8.586,22.777-1.071,8.505-7.182,17.86-7.723,17.324-1.095-1.113.472-5.14-.958-4.535-3.765,1.566-1.5,9.3-11.388,8.227-3.143-.339-.265,1.832-1.736,1.847-.967,0-.078-2.3-.93-2.73-1.131-.565-1.462.55-1.686,2.125,1.974.573,4.343.7,5.309,2.405.622,1.149,2.176,15.061,3.234,18.176" transform="translate(1.894 0.151)" fill="none" stroke="#002859" stroke-miterlimit="10" stroke-width="2"/>
        <path id="Trazado_376" data-name="Trazado 376" d="M662.122,938.663c-3.691-6.257-11.14-21.209-11.429-28.429-.129-3.527,5.029-12.176,6.514-14.311,0-.017,7.682-5.451,7.69-5.451.943-.88-7.374-6.276-8.1-7.045-3.714-3.866-8.135-11.488-4.915-16.885,1.328-2.254,5.575-1.4,6.9-3.655,1.539-2.639-3.845-6.587.6-8.924,4.059-2.149,9.876-4.957,11.933-10.838.417-1.136-2-5.451-.21-7.137,1.749-1.64,5.959.321,6.966-1.832.757-1.7-14.259-25.58-13.133-29.364.339-1.155,2.667-.064,3.506-.916,1.915-2.042,2.044-5.287,2.4-8.062a27.019,27.019,0,0,0-.113-4.224c-.041-1.41-.068-2.8-.105-4.215-.129-4.184-.233-8.409-.362-12.615,0-.01-.206-8.439-.206-8.439,2.176-12.377,12.652-11.232,11.961-14.411-.28-1.228-2.7-1.393-2.714-2.658,0,0,5.149-5.4,5.149-5.406.931-5.671-9.032-18.207-11.741-22.843-11.96-20.582-24.457-40.733-37.127-60.852l-.525-1.647c-7.933-.431-15.305-.582-18.987,0-5.969.958-11.392,7.086-17.5,8.213-7.457,1.374-8.68-5.891-14.323-7.032-2.066-.431-3.647,5.071-5.209,3.619-.174-.128-.518-19.628-.565-21.658q-.4-15.945-.792-31.89l-.216-9.184c1.087-3.157,6.785-2.488,5.126-8.119l-3.642-4.47c-.054-1.583,4.549-5.515,3.35-8.081-1.874-4.063-17.847,13.523-22.652,17.059-21.9,16.171-19.492,12.876-46.171,13.118-4.553.042-9.079.069-13.613.142-1.512,0-3.377.985-4.535.018l1.583-6.289c-.123-4.8-4.736-4.192-6.381-7.146-1.676-2.94.042-9.039-2.093-11.648-7.206-8.782-35.273-1.429-43.321-6.413-6.958-4.3,11.925-13.693,7.1-22.937-2.2-4.215-7.4-11.255-11.017-14.3-.014,0-7.183-3.523-7.183-3.523-2.084-2.314-.979-7.435-2.918-9.88-2.29-2.877-7.718-3.3-9.922-6.239-2.409-3.18-3.6-9.694-4.993-13.437-1.164-3.114-10.778-9.326-8.969-12.559,2.8-4.938,4.548,5.038,4.37-2.727-.123-4.906-13.344-5.891-14.732-12.492-.581-2.8.842-5.73.467-8.566-.179-1.357-1.488-3.06-.541-4.059.847-.875,2.345.889,3.568.875,1.943-.014,8.1-1.68,9.725-2.776a1.94,1.94,0,0,0,.828-1.809c-1.6-7.69-8.688-11.488-3.123-20.695,5.017-8.295,29.94-18.7,31.535-24.534,1.886-6.945-3.9-14.763-2.19-21.622,2.129-8.538,8.718-15.936,11.158-24.4,1.764-6.069-.727-20.5,3.175-25.245,3.105-3.783,13.412-4.81,17.723-7.3,5.011-2.868,6.5-7.586,9.675-10.856,2.757-2.827,9.863-3.491,13.322-5.47,4.484-2.556,7.736-7.677,12.377-9.96,4.87-2.375,9.624-1.3,13.389-.947,3.9.352,9.487-2.983,13.362-3.647a15.48,15.48,0,0,1,2.68-.015c.889,0,1.988.518,2.685-.009.76-.581.113-2.129.861-2.706a2.927,2.927,0,0,1,2.694-.015c.792.312,1.039,2.185,1.809,1.8,1.186-.608.452-3.28,1.736-3.605,1.058-.27.755,2.5,1.833,2.694,2.624.408,4.479-4.063,7.118-3.637,1.063.179.728,2.693,1.809,2.693,4.54-.012,5.044-8.786,7.027-10.829,4.879-4.937,2.318.766,8.044-.915.113-.023,1.791-4.462,3.555-2.707.952.939.526,3.261,1.828,3.586,1.044.262.686-2.7,1.754-2.7,1.278,0,1.438,2.7,2.714,2.7,2.473-.015,6.051-5.228,9.816-2.745,1.713,1.137-.82,8.185,6.386,10.784,3.243,1.173,1.008-6.227,5.3-4.523,2.029.792,2.12,3.853,3.655,5.374,1.457,1.457,4.237-6.333,4.4-7.21l-.526-3.587c-5.456,1.384-16.3-19.734-22.074-19.711,0,0-8,4.508-8.012,4.517-1.155.239-10.665-3.449-10.779-4.461-.679-6.8,33.509-47.105,35.378-57.668.861-4.851-6.083-3.29-8.095-5.089-1.809-1.583-3.009-4.523-5.409-4.777-1.068-.12-1.623,1.583-2.667,1.809-1.177.226-.311-2.436-.027-3.6.329-1.342-2.126.545-7.179-2.685-2.679-1.69-6.94.766-8.96.014-5.3-1.946-8.457-9.963-13.509-12.574-1.075-.545-2.386-.289-3.586-.444-1.183-.137-2.685-1.232-3.587-.435s.737,2.638.027,3.592l-5.374.009c-5.9,2.707-6.184,5.571-15.18,6.344-.426.033-.226-5.951-2.74-7.206-1.333-.659-1.244,4.082-2.661,3.6l-1.815-5.392c-1.759-1.365-4.672-.05-6.574-1.177-.589-.339-2.958-4.6-5.1-3.3-3.888,2.382-6.446,9.185-10.669,10.843-1.974.766-4.32-1.713-6.262-.889-6.867,2.886,2.4,2.52-4.448,5.428-1.938.811-4.321-1.736-6.267-.9-.884.38-2.707,3.326-6.243,2.722-3.506-.6-10.105-7.036-13.457-6.286-2.1.482-1.494,6.107-3.532,5.42-1.173-.384.192-3.047-.926-3.6-2.35-1.177-9.46,5.1-11.589,3.628-1.264-.871-.2-3.152-.934-4.5-2.625-4.863-5.122.009-6.248.009-1.911,0-6.61-6.046-6.318-8.094.051-.326,4.393-6.006,4.431-6.322.443-3.06-3-13.5-4.572-16.23-2.721-4.842-11.987,4.814-17.906-5.387-2.6-4.523,1.873-3.116,2.661-6.32,1.434-5.88-3.506-4.637-5.406-8.1-1.018-1.865.252-4.554-.911-6.322-2.94-4.486-6.738-3.015-10.743-3.6-4.41-.632-4.2-4.2-7.169-6.314l-5.36-1.786c-1.218-1.077-.293-3.958-1.809-4.523-.586-.216-24.933-3.907-12.523-8.117,1.018-.339-3.464-5.1-3.578-5.406-1.1-2.561-.522-5.671-1.809-8.135-2.011-3.825-8.708-11.383-12.529-13.536L348.4,87.293c-.541-.659,1.608-.985,1.782-1.809.321-1.448-2.589-6.7-4.476-6.317-1.066.206-.916,2.048-1.777,2.714-2.41,1.827-11.155-7.962-13.4-9.047-5.524-2.7-5.553,2.812-8.91,2.714-5.158,3.11-18.795-.985-17.851,4.53l7.146,2.707c3.143,3.105,3.367,9.286,6.257,12.666,1.293,1.5,4.146,1.114,5.35,2.7,2.667,3.454-.87,7.559-.865,10.843.009,3.125,3.436,7.861,2.707,10.847a5.949,5.949,0,0,1-2.667,3.629c-7.9,4.589.7-4.838-6.253-3.619-1.357.226-6.317,28.231-9.661,34.378-8.282,15.184-41.979,47.157-57.494,55.363-20.265,10.71-46.436,12.245-65.532,25.636-5.145,3.6-9.612,10.508-13.862,15.175-.921,1-2.763,1.663-2.763,3.033-.036,3.183,4.874,4.637.113,8.164-3.293,2.432-2.633-11.168-6.293-5.419-2.973,4.7-1.137,12.995-3.28,18.181-1.415,3.4-5.286,5.826-6.948,9.106A79.868,79.868,0,0,0,143,304.39c-.842,5.823,5.41,8.631.27,14.535-2.392,2.74-7.8,3.043-10.531,5.5-4.156,3.751,1.263,16.4-9.365,18.218l-8.021-3.107c-20.274-7.874-11.478-18.855-19.092-23.948-8.859-5.91-4.846-.384-12.415-.807-2.9-.182-16.989-11.076-18.79-10.792-6.834,1.045-10.4,15.428-17.5,8.305-3.024-3.019,3.393-6.413,4.233-9.134.4-1.369-9.923-6.78-4.71-14.512.623-.943,14.49,1.6,16.7-6.491.665-2.469-1.658-4.837-2.488-7.26-1.058-3.116-2.611-17.027-3.234-18.176-.967-1.705-3.335-1.832-5.309-2.405-.3,2.111-.348,5.089-1.718,6.087-2.149,1.558-5.712-.508-7.952.939-.009.01-3.427,6.386-3.427,6.4-3.33,3.393-11.008,4.676-13.118,9.2-.775,1.659.329,3.99-.792,5.465-1.434,1.9-4.548,1.892-6.107,3.67-2.036,2.336-2.149,5.994-4.27,8.236-2.684,2.853-10.256,6.46-11.265,11.012-1.754,7.952.33,13.57-3.078,20.985-.494,1.09,14.063,15.154,14.54,18.112.824,5.026-3.027,1.374-5.226,2.766-.175.113-.253,6.294-.71,7.307-.386.875,1.222,1.5,1.822,2.249,6.249,7.752,14.568,11.1,16.46,22.172,3.123,18.25-10.5,8.3-12.125,8.31-3.084.032-4.571,6.8-4.155,8.919,2.987,14.97,44.072,27.932,56.614,36.037,5.74,3.732,7.53,8.209,11,13.513,2.753,4.224,7.883,6.542,10.916,10.779,2.853,3.976-1.494-.815,1.058,5.455l4.547,4.48c2.231,3.518,1.746,7.351,3.006,10.856,1.91,5.329,5.461,8.424,6.614,13.55,2.579,11.228,20.092,17.289,25.616,26.909.129.206,4.7,7.988,4.7,8.094.042,1.32-1.9,2.336-1.626,3.643.288,1.455,7.054,4.649,8.269,6.362,3.265,4.6.146,8.8,2.107,12.533,1.416,2.688,4.736,4.264,5.557,7.187.861,3.053-.752,5.016,1.194,8.142,2.126,3.393,3.221-1.868,4.494,2.639.591,2.089-7.452,4.141-.631,6.362.9.288.032-2.12.778-2.721a2.172,2.172,0,0,1,2.638-.027c.638.628.234,1.809.113,2.707-.113.65-.942,1.168-.82,1.823.871,4.292,6.35,4.723,6.583,10.765.363,8.786,15.338,26.3,12.864,35.126-.44,1.526,9.547,11.911,11.672,16.556,3.817,8.263,10.275,16.16,15.484,22.822,1.727,2.226,1.328,6.458,2.138,8.987.444,1.329,5.9,8.685,3.994,10.774-3.146,3.473-3.659-2.766-1.533,4.535l7.622,3.958c8.149,4.224,11.874,8.584,16.922,15.539.628.861,4.177,17.516,3.554,19.78-.226.815-2.14,1.173-1.668,1.85,1.291,1.832,4.467,1.219,6.253,2.6,3.419,2.638-.861,3.188,2.007,5.377,4.365,3.3,9.053,3.83,12.675,8.814,1.668,2.273-1.053,5.854.348,7.21,4.6,4.41,11.43,11.25,14.846,17.755,1.641,3.114.555,7.723,2.262,10.756,4.238,7.55,16.574,12.652,17.715,22.226.421,3.518.219,13.981-2.363,16.839-2.53,2.8-8.142-.219-7.82,5.836.152,3.279,4.539,1,5.263.807.779-.226.98,13.457,1.613,14.346.838,1.191,3.212-.943,4.361-.064a16.8,16.8,0,0,1,3.661,3.545,6.735,6.735,0,0,1,1.113,4.462c-.072.632-1.727.293-1.7.916.137,2.356,8.287,5.571,9.092,7.046.591,1.062-1.113,2.455-.679,3.6.372,1.008,2.058.88,2.714,1.74l1.155,5.351c12.666,10.912,20.242,8.3,30.009,24.636,1.251,2.08,8.718.421,8.973,5.2.051,1.045-2.239.853-2.514,1.85-.207.792,6.385,1.769,6.22,2.576-.226,1.209-2.529,1.52-2.464,2.738.069,1.255,13.536,6.368,15.14,6.9l3.66,3.527c5.767,3.042,14.16,3.866,19.505,7.69,2.91,2.1,3.014,6.12,7.32,7.046,3.732.824,13,1.722,15.888,5.089,4.722,5.5,11.41,12.158,18.987,14.9,5.23,1.889,15.9-.009,20.215,4.994.8.971.155,2.731,1.035,3.573a4.911,4.911,0,0,0,3.523.852c.646-.009,1.036-.916,1.682-.925,2.167-.037,19.349,10.618,22.278,12.148,4.491,2.345,10.326.422,14.852,2.428,2.451,1.072,9.547,5.03,10.788,7.871.365.805-.522,2.06.113,2.674,4.274,4.123,11.589,6.074,16.876,8.639,3.641,1.8,4.433,5.654,8.126,7.019,7.182,2.628,18.772,3.664,23.019,11.232,1.222,2.18,3.335,9.958,3.166,12.432-.087,1.311-2.254,2.488-1.563,3.6.779,1.244,2.95.385,4.348.792,5.754,1.751,9.547,6.672,15.089,8.708.784.275,22.432,16.82,32.487,24.7l.55-.284c11.616-1.1,33.189-5.478,31.9-21.813-.312-3.683-8.218-12.836-3.239-15.951,2.171-1.365,11,2.428,16.125-8.237,4.4-9.143-13.083-9.921-6.72-16.811,3.793-4.113,9.541-7.11,13.477-10.856,3.871-3.691,4.863-11.049,9.065-14.362.98-.792,8.2-1.787,8.544-3.665.623-3.416-3.674-7.668.452-12.505,1.452-1.658,10.494-2.107,7.622-6.275-5.817-8.439-15.849-.275-20.3-7.8" transform="translate(0.131 9.432)" fill="none" stroke="#002859" stroke-miterlimit="10" stroke-width="2"/>
        <path id="Trazado_377" data-name="Trazado 377" d="M623.572,1042.018c-.531-.366-1.333-1.218-.916-1.74,2.409-3.105,8.832-1.136,11.021-2.827,7.146-5.428-6.793-17.37-6.739-18.533.133-3.419,11.987-13.111,12.313-14.347.2-.642-25.858-18.763-27.593-24.471-.452-1.44.884-2.969.678-4.444,0-.018-3.724-7.054-3.724-7.054-1.583-4.75-.99-10.261-2.3-15.089-1.348-4.875-7.1-12.7-6.725-17.673.138-1.961,8.809-2.149,3.212-6.267-.889-.649-9.839-.55-11.334-2.538-1.809-2.382-.6-7.136-2.1-9.748-3.805-6.586-7.916-6.724-9.238-15.007C575,912.944,566.172,909.151,564,910.516c-4.976,3.114,2.927,12.266,3.238,15.945,1.288,16.335-20.283,20.715-31.9,21.814l-.55.284c2.94,2.308,4.946,3.921,5.056,4.113,1.123,1.842-1.357,8-1.26,10.674.386,8.482,4.064,17.544,5.507,26.575.463,2.931-.824,5.965-.452,8.9.257,2.016,2.635,3.565,3.679,5.269,1.993,3.252-1.3,7.385-.407,9.757.439,1.164,1.9,1.667,2.694,2.62a7.222,7.222,0,0,1,.952,1.769c1.79,5.455,2.846,18.05,3.269,23.776" transform="translate(69.985 118.075)" fill="none" stroke="#002859" stroke-miterlimit="10" stroke-width="2"/>
        <path id="Trazado_378" data-name="Trazado 378" d="M567.661.036c-.023,4.41-.032,8.764-.05,13.167l-.009,8.766c.815.893,2.386-.3,3.577-.443a14.338,14.338,0,0,1,3.6-.444c5.493.691,17.591.655,23.312,2.707,3.647,1.31,3.212,5.08,4.47,7.2,4.491,7.5-1.357,5.222,2.223,11.227.586.985,2.4,2.73,1.346,3.166-7.15,2.868-11.723-3.321-17.939-5.41-4.461-1.5-4.644,4.237-8.066,4.5-1.342.078-2.249-1.809-3.592-1.809-5.6-.009-10.613,5.387-16.6,5.387-1.044,0-2.547-.857-3.143,0-.856,1.213,0,2.99,0,4.5-.008,2.9-.008,5.864-.008,8.773q-.014,8.773-.009,17.544v8.763c.59,2.1,4.649,7.521,6.284,9.006,4.577,4.131,13.06,5.222,17.059,9.889,4.655,5.46.009,7.761.018,12.589.009,7.682,10.706,15.391,12.6,23.366s-4.49,24.778-6.17,33.619c-5.452,28.584-10.193,57.3-14.979,86.01-1.237,7.484-3.784,35.579-7.494,40.485a2.36,2.36,0,0,1-1.375.9l.527,3.586c-.164.881-2.94,8.668-4.4,7.211-1.535-1.521-1.625-4.586-3.655-5.374-4.288-1.709-2.052,5.689-5.3,4.517-7.206-2.6-4.672-9.646-6.386-10.783-3.765-2.488-7.343,2.73-9.816,2.743-1.273,0-1.434-2.7-2.714-2.7-1.068,0-.71,2.963-1.754,2.7-1.3-.325-.876-2.647-1.829-3.587-1.763-1.754-3.445,2.686-3.555,2.707-5.726,1.682-3.166-4.021-8.044.916-1.982,2.043-2.488,10.817-7.026,10.829-1.086,0-.752-2.514-1.809-2.694-2.638-.425-4.493,4.046-7.118,3.638-1.077-.192-.775-2.964-1.833-2.694-1.278.326-.55,3-1.736,3.605-.766.384-1.018-1.489-1.809-1.8a2.925,2.925,0,0,0-2.693.015c-.748.577-.1,2.125-.862,2.706-.7.527-1.8.009-2.684.009a15.385,15.385,0,0,0-2.681.015c-3.875.664-9.459,4-13.361,3.646-3.766-.348-8.521-1.429-13.389.948-4.637,2.282-7.895,7.4-12.378,9.96-3.458,1.979-10.563,2.638-13.32,5.47-3.166,3.265-4.664,7.983-9.676,10.856-4.31,2.488-14.618,3.518-17.723,7.3-3.9,4.742-1.411,19.176-3.174,25.245-2.442,8.461-9.029,15.859-11.158,24.4-1.71,6.858,4.071,14.678,2.189,21.622-1.595,5.836-26.519,16.239-31.535,24.534-5.565,9.209,1.521,13.011,3.125,20.695a1.937,1.937,0,0,1-.829,1.809c-1.626,1.095-7.783,2.762-9.725,2.776-1.222.014-2.721-1.751-3.568-.875-.949,1,.361,2.7.541,4.059.374,2.836-1.049,5.767-.468,8.566,1.383,6.6,14.609,7.586,14.733,12.492.178,7.765-1.567-2.212-4.371,2.725-1.809,3.234,7.8,9.446,8.969,12.56,1.389,3.743,2.584,10.257,4.993,13.437,2.2,2.94,7.632,3.362,9.923,6.238,1.937,2.446.833,7.568,2.918,9.882,0,0,7.17,3.523,7.182,3.523,3.619,3.041,8.821,10.082,11.017,14.3,4.824,9.245-14.058,18.643-7.1,22.936,8.048,4.984,36.115-2.368,43.321,6.414,2.134,2.6.416,8.7,2.093,11.648,1.644,2.955,6.257,2.351,6.381,7.146l-1.59,6.29c1.159.967,3.023-.014,4.535-.019,4.536-.072,9.062-.1,13.614-.141,26.679-.248,24.265,3.053,46.17-13.118,4.805-3.537,20.78-21.122,22.652-17.059,1.2,2.566-3.4,6.5-3.349,8.081l3.641,4.47c1.654,5.625-4.039,4.961-5.126,8.117l.216,9.185c.261,10.649.531,21.26.8,31.89.05,2.036.393,21.531.565,21.658,1.563,1.457,3.143-4.045,5.209-3.619,5.643,1.141,6.867,8.406,14.323,7.032,6.107-1.131,11.535-7.256,17.5-8.215,3.682-.581,11.053-.43,18.987,0,10.4.578,21.8,1.664,27.1,2.309,3.092.408,16.766,2.443,16.876,2.58,2.9,3.408-8.008,6.138,2.479,5.644,5.922-.294,17.81-3.794,22.267-7.619,4.319-3.7,5.066-11.631,9.445-15.286,4.958-4.123,20.642.353,21.278-.138,1.278-.934.779-3.156,1.667-4.479,2.928-4.255,14.43-14.4,19.25-16.221,1.232-.467,2.647-.014,3.976-.024s2.763.486,4.009-.027c7.187-2.868,12.724-12.779,19.257-17.086,9.349-6.2,26.866-11.5,38.057-11.823,3.166-.078,10.087-2.432,13.293-1.832.656.113.348,2.084.931,1.763.833-.416.027-2.231.852-2.694.971-.472,7.164,4.53,8.956,5.347,5.523,2.488,7.307-11.761,12.367-7.206l4.54,7.124c.226,1.026-.371,24.653-.587,25.038-2.331,4.126-5.654,7.114-6.949,11.648-3.083,10.669,8.864,19.254,8.292,24.082-.44,3.751-4.535,7.059-5.176,10.76-.826,4.847,2.442,5.918,3.673,8.915.729,1.787-1.616,5.9,1,8.035,3.083,2.547,7.489,3.225,7.209,8.9-.059,1.328-1.922,2.272-1.718,3.582.7,4.517,5.315,1.676,7.425,2.932,4.608,2.794,1.7,11.352,5.182,13.082.014.019,8.85.835,8.864.835,2.267,1.2,1.956,6.018,4.512,6.238,1.237.1,1.42-3.087,2.611-2.684,1.137.384-.565,2.565.042,3.564.572.961,1.973.99,2.986,1.484,1.416.706,7.577,1.961,7.683,2.036,2.808,1.868-3.9,8.676,4.562,12.486,1.063.459,25.557,4.389,25.69,4.362,5.029-1.557,5.611-6.333,12.336-4.508,7.641,2.089,16.143,12.065,23.974,12.4,3.518.165,4.311-6.623,8.821-2.7,4.389,3.845,5.662,17.517,15.167,19.588.024,0,4.389-2.7,4.41-2.7,0,0,6.194,5.333,6.2,5.342l6.2-.028c1.7.77,1.787,3.748,3.523,4.462,1.182.452,2.52,0,3.778,0,2.5-.01,5-.018,7.476-.037,1.251,0,2.714-.678,3.761-.017,2.707,1.73,3.166,8.309,5.365,10.691.009.009,7.956,5.3,7.97,5.315,1.018,1.244.554,3.436,1.791,4.462,3.265,2.721,9.418-2.639,12.326-1.809,6.225,1.758.573,4.41,7.939,2.656.014,0,6.152-3.572,6.152-3.572,3.075-.174,5.781,2.867,8.837,2.647l5.272-3.554c.678.129,11.648,10.26,14.155,11.571,4.8,2.5,12.533,2.813,16.744,6.23,10.022,8.1.866,11.928.027,18.69-1.117,8.924,8.955,14.927,7.054,24.022-.775,3.857-3.948,7.613-4.366,11.553-.219,2.236,4.078,13.825,2.654,15.125-1.668,1.513-7.641-2.656-6.712,3.381,1.026,6.907,14.177,11.7,15.016,21.667.348,3.94,2.272,36.307,3.134,37.141" transform="translate(45.89 0.003)" fill="none" stroke="#002859" stroke-miterlimit="10" stroke-width="2"/>
        <path id="Trazado_379" data-name="Trazado 379" d="M1062.57,882.1c-1.521-.045,1.129,1.027.011,0-.862-.833-2.785-33.2-3.134-37.142-.839-9.967-13.99-14.759-15.017-21.666-.93-6.039,5.044-1.869,6.712-3.381,1.425-1.3-2.872-12.892-2.653-15.126.417-3.939,3.592-7.69,4.366-11.552,1.9-9.089-8.172-15.1-7.054-24.023.838-6.761,9.995-10.591-.027-18.69-4.21-3.416-11.943-3.732-16.744-6.229-2.51-1.311-13.481-11.443-14.155-11.572l-5.272,3.555c-3.053.219-5.767-2.827-8.837-2.647,0,0-6.138,3.572-6.152,3.572-7.366,1.758-1.713-.9-7.939-2.658-2.909-.833-9.062,4.523-12.326,1.809-1.236-1.026-.774-3.215-1.79-4.461-.015-.009-7.961-5.3-7.971-5.315-2.194-2.382-2.656-8.96-5.364-10.691-1.045-.66-2.511.018-3.761.018-2.474.018-4.976.027-7.476.036-1.259,0-2.6.452-3.779,0-1.735-.715-1.817-3.691-3.523-4.461l-6.193.028c-.014-.01-6.207-5.342-6.207-5.342-.023,0-4.388,2.7-4.41,2.7-9.5-2.071-10.778-15.739-15.167-19.588-4.512-3.921-5.3,2.868-8.821,2.7-7.828-.33-16.33-10.307-23.974-12.4-6.725-1.823-7.307,2.95-12.337,4.508-.132.027-24.626-3.9-25.689-4.362-8.466-3.811-1.755-10.618-4.563-12.487-.113-.074-6.266-1.329-7.682-2.036-1.018-.494-2.414-.524-2.987-1.484-.61-1,1.1-3.179-.041-3.564-1.192-.4-1.374,2.786-2.611,2.685-2.557-.219-2.245-5.039-4.512-6.239-.015,0-8.851-.815-8.864-.833-3.487-1.731-.573-10.291-5.182-13.083-2.111-1.255-6.725,1.583-7.425-2.931-.2-1.311,1.658-2.254,1.718-3.583.279-5.671-4.128-6.35-7.21-8.9-2.61-2.134-.266-6.248-.994-8.029-1.232-3-4.5-4.071-3.674-8.915.642-3.7,4.737-7.011,5.177-10.761.572-4.828-11.374-13.412-8.292-24.081,1.3-4.531,4.617-7.518,6.949-11.648.216-.39.811-24.014.586-25.038l-4.539-7.125c-5.062-4.548-6.844,9.694-12.368,7.207-1.791-.817-7.984-5.819-8.955-5.347-.824.463-.018,2.276-.852,2.693-.582.321-.275-1.644-.931-1.762-3.207-.6-10.123,1.754-13.293,1.832-11.2.32-28.708,5.625-38.058,11.822-6.532,4.311-12.07,14.219-19.258,17.087-1.244.513-2.67.009-4.009.027s-2.743-.444-3.975.024c-4.82,1.822-16.323,11.965-19.25,16.22-.888,1.324-.389,3.545-1.667,4.479-.637.491-16.321-3.985-21.278.138-4.38,3.655-5.126,11.585-9.445,15.287-4.458,3.825-16.344,7.323-22.268,7.617-10.485.494.426-2.236-2.478-5.644-.113-.137-13.784-2.17-16.876-2.578-5.3-.646-16.688-1.732-27.1-2.309l.518,1.643c12.666,20.12,25.166,40.267,37.127,60.852,2.707,4.646,12.666,17.179,11.74,22.85,0,.009-5.149,5.407-5.149,5.407.019,1.263,2.438,1.428,2.714,2.656.691,3.178-9.785,2.034-11.961,14.409,0,0,.206,8.429.206,8.438.129,4.206.234,8.428.362,12.615.037,1.411.065,2.8.105,4.217a27.15,27.15,0,0,1,.113,4.224c-.357,2.774-.486,6.018-2.4,8.06-.833.852-3.155-.237-3.506.917-1.131,3.783,13.889,27.668,13.134,29.363-1.008,2.15-5.218.192-6.967,1.832-1.791,1.687.628,6,.21,7.137-2.057,5.88-7.874,8.685-11.933,10.838-4.439,2.336.943,6.285-.6,8.924-1.319,2.254-5.566,1.4-6.9,3.655-3.22,5.4,1.2,13.02,4.915,16.885.729.77,9.047,6.167,8.1,7.046-.014,0-7.69,5.428-7.69,5.451-1.485,2.135-6.643,10.784-6.514,14.31.288,7.221,7.737,22.172,11.429,28.429,4.449,7.523,14.475-.64,20.3,7.8,2.872,4.168-6.17,4.617-7.622,6.275-4.123,4.838.174,9.089-.452,12.506-.339,1.877-7.563,2.868-8.544,3.664-4.2,3.308-5.194,10.665-9.065,14.362-3.935,3.748-9.684,6.743-13.477,10.856-6.363,6.89,11.121,7.668,6.72,16.813,1.319,8.282,5.428,8.419,9.239,15.007,1.5,2.611.293,7.366,2.1,9.748,1.5,1.988,10.443,1.887,11.332,2.538,5.6,4.114-3.074,4.306-3.212,6.267-.374,4.976,5.378,12.8,6.725,17.673,1.314,4.828.715,10.344,2.3,15.089,0,0,3.725,7.036,3.725,7.053.206,1.471-1.131,3.006-.679,4.446,1.737,5.707,27.792,23.83,27.593,24.471-.33,1.237-12.181,10.93-12.314,14.347-.054,1.164,13.885,13.1,6.739,18.534-2.189,1.686-8.612-.284-11.021,2.822" transform="translate(73.505 69.46)" fill="none" stroke="#002859" stroke-miterlimit="10" stroke-width="2"/>
        <path id="Trazado_380" data-name="Trazado 380" d="M924.977,1025.678c2.794-5.331,3.826-19.441,8.419-23.014,3.766-2.95,29.742-5.021,35.979-6.056,18.227-3.069,30.376-9.96,48.516-11.728" transform="translate(121.047 128.885)" fill="none" stroke="#002859" stroke-miterlimit="10" stroke-width="2"/>
        <path id="Trazado_381" data-name="Trazado 381" d="M969.548,995.251c-6.239,1.035-32.213,3.105-35.979,6.056-4.594,3.573-5.625,17.682-8.419,23.014-4.508,8.575,2.886-5.405,0,3.8" transform="translate(120.874 130.242)" fill="none" stroke="#002859" stroke-miterlimit="10" stroke-width="2"/>
        <path id="Trazado_382" data-name="Trazado 382" d="M604.375,847.289c1.583-.651,4.663,5.012,5.868,2.9.934-1.7-14.023-11.964-15.04-11.422-1.874,1.054,2.245,3.263,2.272,3.308,1.516,2.827-2.275,2.488-2.547,3.894-.174.9,1.943.284,2.036.853a6.743,6.743,0,0,1,.023,1.218c-1.709,4.039-13.738,3.5-14.927-.138-1.09-3.326-5.994,1.293-6.559-1.374-.293-1.365,8.5-7.76,3.485-9.831-3.032-1.264-10.269.276-12.853-1.951-.494-.458-1.379-1.485-1.173-2.227,1.32-4.966-2.149,2.868-3.506-1.979-.1-.329-1.668-5.57-2.4-5.634-9.138-.651,6.943,11-2.949,7.76-1.4-.467-.729-2.007-1.632-2.859-.2-.2-11.218-2.886-7.224-9.005,1.137-1.76,2.036.805,3.028.164,1.181-.806,1.164-2.638,2.024-3.793.737-1.008-1.79-3.023-.728-3.655,2.3-1.365,7.709,12.514,10.242,8.062.321-.565-1.979-1.722-2.271-2.135-2.754-4.214-9.386-12.6-8.571-15.547.521-1.978,6.165-1.374,7.287-2.052,1.049-.641-5.089-1.749-3.981-2.509,2.488-1.668,7.3,1.667,8.951-.431.211-.226-4.164-4.452-.494-3.125,1.809.66,13.394,12.113,15.359,13.495,1.338.926,4.819-3.243,2.4-.219-.452.587,1.182,1.375,1.47,1.7,3.925,3.427,5.089,7.852,5.409,8.029,1.21.623,2.745-.65,3.982-.659,3.874-.046-.024,2.107.32,2.375,1.357,1.131,3.069.413,4.5,1.045,4.829,2.217,3.5,7.081,4.566,10.609.715,2.327,12.269-1.878,13.185,2.639.375,1.841-7.351,4.644-7.4,4.937-.151,1.081,3.207,5.515,3.472,7.3.317,2.08,1.764-1.146,2.529-1.182,1.922-.138,11.761,1.438,11.888,3.069.2,2.446-1.018,1.548-.243,4.278.522,1.933-4.75-2.647-5.9-1.044-.893,1.236,1.287,5.194-4.168,6.239-2.515.485-6.559-1.567-9.089.953-.074.091,10.32,5.194,5.227,8.437-1.411.9-9.152-1.512-9.455-1.943-4.383-6.2-.5-5.1.092-11.681.161-1.658-3.835-3.2-2.6-4.306,1.708-1.557,1.859,2.52,6.092-2.556" transform="translate(71.501 104.104)" fill="#003075"/>
        <path id="Trazado_383" data-name="Trazado 383" d="M604.375,847.289c1.583-.651,4.663,5.012,5.868,2.9.934-1.7-14.023-11.964-15.04-11.422-1.874,1.054,2.245,3.263,2.272,3.308,1.516,2.827-2.275,2.488-2.547,3.894-.174.9,1.943.284,2.036.853a6.743,6.743,0,0,1,.023,1.218c-1.709,4.039-13.738,3.5-14.927-.138-1.09-3.326-5.994,1.293-6.559-1.374-.293-1.365,8.5-7.76,3.485-9.831-3.032-1.264-10.269.276-12.853-1.951-.494-.458-1.379-1.485-1.173-2.227,1.32-4.966-2.149,2.868-3.506-1.979-.1-.329-1.668-5.57-2.4-5.634-9.138-.651,6.943,11-2.949,7.76-1.4-.467-.729-2.007-1.632-2.859-.2-.2-11.218-2.886-7.224-9.005,1.137-1.76,2.036.805,3.028.164,1.181-.806,1.164-2.638,2.024-3.793.737-1.008-1.79-3.023-.728-3.655,2.3-1.365,7.709,12.514,10.242,8.062.321-.565-1.979-1.722-2.271-2.135-2.754-4.214-9.386-12.6-8.571-15.547.521-1.978,6.165-1.374,7.287-2.052,1.049-.641-5.089-1.749-3.981-2.509,2.488-1.668,7.3,1.667,8.951-.431.211-.226-4.164-4.452-.494-3.125,1.809.66,13.394,12.113,15.359,13.495,1.338.926,4.819-3.243,2.4-.219-.452.587,1.182,1.375,1.47,1.7,3.925,3.427,5.089,7.852,5.409,8.029,1.21.623,2.745-.65,3.982-.659,3.874-.046-.024,2.107.32,2.375,1.357,1.131,3.069.413,4.5,1.045,4.829,2.217,3.5,7.081,4.566,10.609.715,2.327,12.269-1.878,13.185,2.639.375,1.841-7.351,4.644-7.4,4.937-.151,1.081,3.207,5.515,3.472,7.3.317,2.08,1.764-1.146,2.529-1.182,1.922-.138,11.761,1.438,11.888,3.069.2,2.446-1.018,1.548-.243,4.278.522,1.933-4.75-2.647-5.9-1.044-.893,1.236,1.287,5.194-4.168,6.239-2.515.485-6.559-1.567-9.089.953-.074.091,10.32,5.194,5.227,8.437-1.411.9-9.152-1.512-9.455-1.943-4.383-6.2-.5-5.1.092-11.681.161-1.658-3.835-3.2-2.6-4.306,1.708-1.557,1.859,2.52,6.092-2.556" transform="translate(71.501 104.104)" fill="none" stroke="#002859" stroke-miterlimit="10" stroke-width="2"/>
      </g>
    </g>
    <text id="PERÚ" transform="translate(-23335 -2117.006)" fill="#012859" font-size="25" font-family="Merriweather-Regular, Merriweather" letter-spacing="0.25em"><tspan x="39.825" y="25">PERÚ</tspan></text>
    <text id="ECUADOR" transform="translate(-23516 -2524.006)" fill="#012859" font-size="25" font-family="Merriweather-Regular, Merriweather" letter-spacing="0.25em"><tspan x="43.75" y="25">ECUADOR</tspan></text>
    <text id="BRASIL" transform="translate(-22891 -2258.006)" fill="#012859" font-size="25" font-family="Merriweather-Regular, Merriweather" letter-spacing="0.25em"><tspan x="21.475" y="25">BRASIL</tspan></text>
    <text id="BOLIVIA" transform="translate(-22798 -1733.006)" fill="#012859" font-size="25" font-family="Merriweather-Regular, Merriweather" letter-spacing="0.25em"><tspan x="32.637" y="25">BOLIVIA</tspan></text>
    <g id="Componente_158_69" data-name="Componente 158 – 69" transform="translate(-22806 -2502.006)">
      <text id="Taboca" transform="translate(36)" fill="#fff" font-size="24" font-family="Raleway-Medium, Raleway" font-weight="500" letter-spacing="-0.025em"><tspan x="0" y="23">Taboca</tspan></text>
      <g id="Elipse_10" data-name="Elipse 10" fill="#004891" stroke="#7df900" stroke-width="1">
        <circle cx="15" cy="15" r="15" stroke="none"/>
        <circle cx="15" cy="15" r="14.5" fill="none"/>
      </g>
      <circle id="Elipse_9" data-name="Elipse 9" cx="9" cy="9" r="9" transform="translate(6 6)" fill="#7df900"/>
    </g>
    <g id="Componente_158_76" data-name="Componente 158 – 76" transform="translate(-23252 -1798.006)">
      <text id="Marcobre" transform="translate(36)" fill="#fff" font-size="24" font-family="Raleway-Medium, Raleway" font-weight="500" letter-spacing="-0.025em"><tspan x="0" y="23">Marcobre</tspan></text>
      <g id="Elipse_10-2" data-name="Elipse 10" fill="#004891" stroke="#7df900" stroke-width="1">
        <circle cx="15" cy="15" r="15" stroke="none"/>
        <circle cx="15" cy="15" r="14.5" fill="none"/>
      </g>
      <circle id="Elipse_9-2" data-name="Elipse 9" cx="9" cy="9" r="9" transform="translate(6 6)" fill="#7df900"/>
    </g>
    <g id="Componente_158_73" data-name="Componente 158 – 73" transform="translate(-23290 -1857.006)">
      <text id="F_R_Pisco" data-name="F&amp;R Pisco" transform="translate(36)" fill="#fff" font-size="24" font-family="Raleway-Medium, Raleway" font-weight="500" letter-spacing="-0.025em"><tspan x="0" y="23">F&amp;R Pisco</tspan></text>
      <g id="Elipse_10-3" data-name="Elipse 10" fill="#004891" stroke="#5a9cff" stroke-width="1">
        <circle cx="15" cy="15" r="15" stroke="none"/>
        <circle cx="15" cy="15" r="14.5" fill="none"/>
      </g>
      <circle id="Elipse_9-3" data-name="Elipse 9" cx="9" cy="9" r="9" transform="translate(6 6)" fill="#5a9cff"/>
    </g>
    <g id="Componente_158_75" data-name="Componente 158 – 75" transform="translate(-23073 -1808.006)">
      <text id="Santo_Domingo" data-name="Santo Domingo" transform="translate(36)" fill="#fff" font-size="24" font-family="Raleway-Medium, Raleway" font-weight="500" letter-spacing="-0.025em"><tspan x="0" y="23">Santo Domingo</tspan></text>
      <g id="Elipse_10-4" data-name="Elipse 10" fill="#004891" stroke="#f98600" stroke-width="1">
        <circle cx="15" cy="15" r="15" stroke="none"/>
        <circle cx="15" cy="15" r="14.5" fill="none"/>
      </g>
      <circle id="Elipse_9-4" data-name="Elipse 9" cx="9" cy="9" r="9" transform="translate(6 6)" fill="#f98600"/>
    </g>
    <g id="Componente_158_70" data-name="Componente 158 – 70" transform="translate(-23402 -2208.006)">
      <text id="La_Colorada" data-name="La Colorada" transform="translate(36)" fill="#fff" font-size="24" font-family="Raleway-Medium, Raleway" font-weight="500" letter-spacing="-0.025em"><tspan x="0" y="23">La Colorada</tspan></text>
      <g id="Elipse_10-5" data-name="Elipse 10" fill="#004891" stroke="#f98600" stroke-width="1">
        <circle cx="15" cy="15" r="15" stroke="none"/>
        <circle cx="15" cy="15" r="14.5" fill="none"/>
      </g>
      <circle id="Elipse_9-5" data-name="Elipse 9" cx="9" cy="9" r="9" transform="translate(6 6)" fill="#f98600"/>
    </g>
    <g id="Componente_158_71" data-name="Componente 158 – 71" transform="translate(-23309 -1993.006)">
      <text id="Sumac_Wayra" data-name="Sumac Wayra" transform="translate(36)" fill="#fff" font-size="24" font-family="Raleway-Medium, Raleway" font-weight="500" letter-spacing="-0.025em"><tspan x="0" y="23">Sumac Wayra</tspan></text>
      <g id="Elipse_10-6" data-name="Elipse 10" fill="#004891" stroke="#f98600" stroke-width="1">
        <circle cx="15" cy="15" r="15" stroke="none"/>
        <circle cx="15" cy="15" r="14.5" fill="none"/>
      </g>
      <circle id="Elipse_9-6" data-name="Elipse 9" cx="9" cy="9" r="9" transform="translate(6 6)" fill="#f98600"/>
    </g>
    <g id="Componente_158_77" data-name="Componente 158 – 77" transform="translate(-23136 -1759.006)">
      <text id="Quimsachata" transform="translate(36)" fill="#fff" font-size="24" font-family="Raleway-Medium, Raleway" font-weight="500" letter-spacing="-0.025em"><tspan x="0" y="23">Quimsachata</tspan></text>
      <g id="Elipse_10-7" data-name="Elipse 10" fill="#004891" stroke="#f98600" stroke-width="1">
        <circle cx="15" cy="15" r="15" stroke="none"/>
        <circle cx="15" cy="15" r="14.5" fill="none"/>
      </g>
      <circle id="Elipse_9-7" data-name="Elipse 9" cx="9" cy="9" r="9" transform="translate(6 6)" fill="#f98600"/>
    </g>
    <g id="Componente_158_72" data-name="Componente 158 – 72" transform="translate(-23224 -1948.006)">
      <text id="Cumbres_del_Sur" data-name="Cumbres del Sur" transform="translate(36)" fill="#fff" font-size="24" font-family="Raleway-Medium, Raleway" font-weight="500" letter-spacing="-0.025em"><tspan x="0" y="23">Cumbres del Sur</tspan></text>
      <g id="Elipse_10-8" data-name="Elipse 10" fill="#004891" stroke="#7df900" stroke-width="1">
        <circle cx="15" cy="15" r="15" stroke="none"/>
        <circle cx="15" cy="15" r="14.5" fill="none"/>
      </g>
      <circle id="Elipse_9-8" data-name="Elipse 9" cx="9" cy="9" r="9" transform="translate(6 6)" fill="#7df900"/>
    </g>
    <g id="Componente_158_74" data-name="Componente 158 – 74" transform="translate(-23047 -1840.006)">
      <text id="San_Rafael" data-name="San Rafael" transform="translate(36)" fill="#fff" font-size="24" font-family="Raleway-Medium, Raleway" font-weight="500" letter-spacing="-0.025em"><tspan x="0" y="23">San Rafael</tspan></text>
      <g id="Elipse_10-9" data-name="Elipse 10" fill="#004891" stroke="#5a9cff" stroke-width="1">
        <circle cx="15" cy="15" r="15" stroke="none"/>
        <circle cx="15" cy="15" r="14.5" fill="none"/>
      </g>
      <circle id="Elipse_9-9" data-name="Elipse 9" cx="9" cy="9" r="9" transform="translate(6 6)" fill="#5a9cff"/>
    </g>
    <g id="Componente_158_78" data-name="Componente 158 – 78" transform="translate(-22955 -1642.006)">
      <text id="Pucamarca" transform="translate(36)" fill="#fff" font-size="24" font-family="Raleway-Medium, Raleway" font-weight="500" letter-spacing="-0.025em"><tspan x="0" y="23">Pucamarca</tspan></text>
      <g id="Elipse_10-10" data-name="Elipse 10" fill="#004891" stroke="#5a9cff" stroke-width="1">
        <circle cx="15" cy="15" r="15" stroke="none"/>
        <circle cx="15" cy="15" r="14.5" fill="none"/>
      </g>
      <circle id="Elipse_9-10" data-name="Elipse 9" cx="9" cy="9" r="9" transform="translate(6 6)" fill="#5a9cff"/>
    </g>
  </g>
</svg>
